<svg width="173" height="28" viewBox="0 0 173 28" fill="none" xmlns="http://www.w3.org/2000/svg">
<g clip-path="url(#clip0_16_4)">
<path d="M41.08 18.86L40.44 16.14L47.52 9H51.16L41.08 18.86ZM38.82 23V9H41.82V23H38.82ZM47.9 23L42.66 16.04L44.72 14.26L51.46 23H47.9ZM53.7661 23V9H56.4461L64.1861 19.46H63.6261C63.5728 19.0467 63.5261 18.6467 63.4861 18.26C63.4461 17.86 63.4061 17.46 63.3661 17.06C63.3394 16.6467 63.3128 16.2267 63.2861 15.8C63.2728 15.36 63.2594 14.9 63.2461 14.42C63.2328 13.9267 63.2261 13.3933 63.2261 12.82V9H66.1661V23H63.4461L55.5461 12.44L56.3061 12.46C56.3728 13.1533 56.4261 13.7467 56.4661 14.24C56.5194 14.72 56.5594 15.14 56.5861 15.5C56.6128 15.86 56.6328 16.1733 56.6461 16.44C56.6728 16.7067 56.6861 16.96 56.6861 17.2C56.6994 17.44 56.7061 17.6933 56.7061 17.96V23H53.7661ZM76.2013 23.2C75.1746 23.2 74.2279 23.02 73.3612 22.66C72.4946 22.3 71.7346 21.8 71.0812 21.16C70.4412 20.5067 69.9479 19.74 69.6012 18.86C69.2546 17.9667 69.0812 17 69.0812 15.96C69.0812 14.9067 69.2546 13.9467 69.6012 13.08C69.9479 12.2 70.4412 11.4333 71.0812 10.78C71.7346 10.1267 72.4946 9.62 73.3612 9.26C74.2279 8.9 75.1746 8.72 76.2013 8.72C77.2413 8.72 78.1879 8.9 79.0413 9.26C79.9079 9.62 80.6613 10.1267 81.3012 10.78C81.9546 11.4333 82.4546 12.2 82.8012 13.08C83.1479 13.96 83.3213 14.92 83.3213 15.96C83.3213 17 83.1479 17.96 82.8012 18.84C82.4546 19.72 81.9546 20.4867 81.3012 21.14C80.6613 21.7933 79.9079 22.3 79.0413 22.66C78.1879 23.02 77.2413 23.2 76.2013 23.2ZM76.2013 20.36C76.7879 20.36 77.3279 20.2533 77.8213 20.04C78.3279 19.8267 78.7613 19.52 79.1213 19.12C79.4812 18.72 79.7612 18.2533 79.9613 17.72C80.1746 17.1867 80.2812 16.6 80.2812 15.96C80.2812 15.32 80.1746 14.7333 79.9613 14.2C79.7612 13.6667 79.4812 13.2067 79.1213 12.82C78.7613 12.42 78.3279 12.1133 77.8213 11.9C77.3279 11.6733 76.7879 11.56 76.2013 11.56C75.6146 11.56 75.0746 11.6733 74.5813 11.9C74.0879 12.1133 73.6546 12.42 73.2813 12.82C72.9079 13.2067 72.6212 13.6667 72.4212 14.2C72.2346 14.7333 72.1412 15.32 72.1412 15.96C72.1412 16.6 72.2346 17.1867 72.4212 17.72C72.6212 18.2533 72.9079 18.72 73.2813 19.12C73.6546 19.52 74.0879 19.8267 74.5813 20.04C75.0746 20.2533 75.6146 20.36 76.2013 20.36ZM88.7987 23L84.5387 9H87.6187L89.8987 16.82C89.9921 17.1 90.0721 17.4067 90.1387 17.74C90.2187 18.06 90.2787 18.3733 90.3187 18.68C90.3721 18.9733 90.4121 19.2533 90.4387 19.52C90.4787 19.7733 90.5121 19.9867 90.5387 20.16L90.0587 20.14C90.1787 19.58 90.2787 19.1133 90.3587 18.74C90.4387 18.3533 90.5121 18.0133 90.5787 17.72C90.6587 17.4133 90.7521 17.1067 90.8587 16.8L93.0587 11.02H95.5387L97.6987 16.8C97.8587 17.2 97.9854 17.5867 98.0787 17.96C98.1854 18.32 98.2721 18.6733 98.3387 19.02C98.4054 19.3533 98.4721 19.6933 98.5387 20.04L98.0987 20.12C98.1387 19.84 98.1654 19.6 98.1787 19.4C98.2054 19.1867 98.2254 18.9933 98.2387 18.82C98.2654 18.6467 98.2921 18.4733 98.3187 18.3C98.3454 18.1133 98.3854 17.9 98.4387 17.66C98.4921 17.4067 98.5721 17.1133 98.6787 16.78L100.939 9H103.979L99.6787 23H97.4587L93.9987 14.72L94.3187 14.76L91.0987 23H88.7987ZM106.222 23V9H109.222V20.3H115.562V23H106.222ZM118.55 23V9H128.01V11.64H121.47V20.36H128.15V23H118.55ZM119.95 17.14V14.58H127.05V17.14H119.95ZM131.446 23V9H137.186C138.212 9 139.139 9.17333 139.966 9.52C140.806 9.85333 141.526 10.3333 142.126 10.96C142.739 11.5733 143.206 12.3067 143.526 13.16C143.846 14.0133 144.006 14.96 144.006 16C144.006 17.0267 143.846 17.9733 143.526 18.84C143.206 19.6933 142.746 20.4333 142.146 21.06C141.546 21.6733 140.826 22.1533 139.986 22.5C139.146 22.8333 138.212 23 137.186 23H131.446ZM134.446 20.82L134.126 20.3H137.086C137.686 20.3 138.226 20.2 138.706 20C139.186 19.7867 139.592 19.5 139.926 19.14C140.272 18.7667 140.532 18.3133 140.706 17.78C140.879 17.2467 140.966 16.6533 140.966 16C140.966 15.3467 140.879 14.76 140.706 14.24C140.532 13.7067 140.272 13.2533 139.926 12.88C139.592 12.5067 139.186 12.22 138.706 12.02C138.226 11.8067 137.686 11.7 137.086 11.7H134.066L134.446 11.22V20.82ZM153.339 23.2C152.259 23.2 151.266 23.02 150.359 22.66C149.466 22.2867 148.693 21.7733 148.039 21.12C147.386 20.4667 146.879 19.7 146.519 18.82C146.173 17.94 145.999 16.9867 145.999 15.96C145.999 14.9333 146.179 13.9867 146.539 13.12C146.913 12.24 147.433 11.48 148.099 10.84C148.779 10.1867 149.573 9.68 150.479 9.32C151.386 8.96 152.379 8.78 153.459 8.78C154.206 8.78 154.919 8.88 155.599 9.08C156.279 9.28 156.899 9.55333 157.459 9.9C158.019 10.2467 158.486 10.6467 158.859 11.1L156.999 13.06C156.653 12.7267 156.286 12.4467 155.899 12.22C155.526 11.98 155.133 11.8 154.719 11.68C154.306 11.5467 153.879 11.48 153.439 11.48C152.813 11.48 152.233 11.5933 151.699 11.82C151.179 12.0467 150.719 12.36 150.319 12.76C149.919 13.16 149.606 13.6333 149.379 14.18C149.166 14.7267 149.059 15.32 149.059 15.96C149.059 16.5867 149.173 17.18 149.399 17.74C149.639 18.2867 149.959 18.7667 150.359 19.18C150.773 19.58 151.253 19.9 151.799 20.14C152.346 20.3667 152.933 20.48 153.559 20.48C153.999 20.48 154.419 20.4133 154.819 20.28C155.219 20.1467 155.566 19.96 155.859 19.72C156.166 19.4667 156.399 19.1733 156.559 18.84C156.733 18.5067 156.819 18.1533 156.819 17.78V17.3L157.219 17.86H153.219V15.36H159.699C159.713 15.5067 159.726 15.6867 159.739 15.9C159.766 16.1133 159.779 16.3267 159.779 16.54C159.793 16.74 159.799 16.9 159.799 17.02C159.799 17.9267 159.633 18.76 159.299 19.52C158.979 20.28 158.526 20.9333 157.939 21.48C157.366 22.0267 156.686 22.4533 155.899 22.76C155.113 23.0533 154.259 23.2 153.339 23.2ZM162.647 23V9H172.107V11.64H165.567V20.36H172.247V23H162.647ZM164.047 17.14V14.58H171.147V17.14H164.047Z" fill="black"/>
<path d="M7.03625 12.1875L1.8125 15L7.03625 17.8125M7.03625 12.1875L14 15.9375L20.9637 12.1875M7.03625 12.1875L1.8125 9.375L14 2.8125L26.1875 9.375L20.9637 12.1875M7.03625 17.8125L1.8125 20.625L14 27.1875L26.1875 20.625L20.9637 17.8125M7.03625 17.8125L14 21.5625L20.9637 17.8125M20.9637 12.1875L26.1875 15L20.9637 17.8125" stroke="#0EA5E9" stroke-width="2.5" stroke-linecap="round" stroke-linejoin="round"/>
</g>
<defs>
<clipPath id="clip0_16_4">
<rect width="173" height="28" fill="white"/>
</clipPath>
</defs>
</svg>
